<svg width="68" height="54" viewBox="0 0 68 54" fill="#F1BE6B" xmlns="http://www.w3.org/2000/svg">
<path d="M67.2 24.3999C65.9 10.3666 53.2 0.333252 39.2 0.333252C38.5666 0.333252 37.9333 0.366585 37.3 0.399919C0.666626 2.79992 0.666626 44.3332 0.666626 44.3332V46.9999C0.666626 50.6666 3.66663 53.6666 7.33329 53.6666H40.6666C56.2333 53.6666 68.7 40.2999 67.2 24.3999ZM11.5333 25.5332C13.4333 21.2332 15.8 17.6999 18.6666 14.8999L30.7333 19.9999C32.7333 20.8332 34 22.7666 34 24.9332C34 27.8999 31.6 30.2999 28.6333 30.2999H9.73329C10.2333 28.7666 10.8 27.1666 11.5333 25.5332ZM55.4666 40.4666C53.588 42.5228 51.3019 44.1655 48.754 45.2902C46.206 46.415 43.4518 46.9973 40.6666 46.9999H7.33329V44.3332C7.33329 44.2666 7.36663 41.2666 8.13329 36.9999H28.6333C35.2666 36.9999 40.6666 31.5999 40.6666 24.9666C40.6666 20.1332 37.7666 15.7666 33.3333 13.8999L25 10.3666C28.6666 8.46659 32.9 7.36658 37.7333 7.06658C38.2333 6.99992 38.7333 6.99992 39.2 6.99992C50.2333 6.99992 59.6333 14.8999 60.5666 25.0332C61.1 30.7666 59.3 36.2332 55.4666 40.4666Z"/>
</svg>
