<svg width="80" height="75" viewBox="0 0 80 75" fill="none" xmlns="http://www.w3.org/2000/svg">
<path d="M3.99923 40.9216H7.99932V66.9622C7.99932 71.0654 11.5874 74.4023 15.9995 74.4023H64.0005C68.4126 74.4023 72.0007 71.0654 72.0007 66.9622V40.9216H76.0008C76.7918 40.9215 77.565 40.7032 78.2226 40.2944C78.8803 39.8856 79.3929 39.3047 79.6956 38.625C79.9982 37.9454 80.0775 37.1975 79.9232 36.476C79.7689 35.7545 79.3881 35.0917 78.8288 34.5714L42.8281 1.09073C42.4569 0.744966 42.0161 0.470655 41.5308 0.283495C41.0455 0.0963355 40.5253 0 40 0C39.4747 0 38.9545 0.0963355 38.4692 0.283495C37.9839 0.470655 37.5431 0.744966 37.1719 1.09073L1.17117 34.5714C0.611923 35.0917 0.231089 35.7545 0.0768156 36.476C-0.077458 37.1975 0.00175584 37.9454 0.304442 38.625C0.607129 39.3047 1.1197 39.8856 1.77735 40.2944C2.435 40.7032 3.20821 40.9215 3.99923 40.9216ZM31.9998 66.9622V48.3618H48.0002V66.9622H31.9998ZM40 8.98102L64.0005 31.3015V48.3618L64.0045 66.9622H56.0003V48.3618C56.0003 44.2585 52.4123 40.9216 48.0002 40.9216H31.9998C27.5877 40.9216 23.9997 44.2585 23.9997 48.3618V66.9622H15.9995V31.3015L40 8.98102Z" fill="#F1BE6B"/>
</svg>
