<svg width="69" height="69" viewBox="0 0 69 69" fill="none" xmlns="http://www.w3.org/2000/svg">
<path d="M50.3124 0H18.6875C16.3058 0 14.375 1.93079 14.375 4.3125C14.375 6.69421 16.3058 8.625 18.6875 8.625H50.3125C52.6943 8.625 54.625 6.69421 54.625 4.3125C54.625 1.93079 52.6941 0 50.3124 0Z" fill="#455A64"/>
<path d="M50.3125 63.2499H18.6875C17.8936 63.2499 17.25 62.6063 17.25 61.8124V49.7805C17.2499 46.0492 18.8606 42.4996 21.6688 40.0429L26.7662 35.5809C27.3632 35.0576 27.4229 34.1494 26.8996 33.5524C26.8581 33.5051 26.8135 33.4605 26.7662 33.419L21.6688 28.957C18.8606 26.5003 17.2499 22.9507 17.25 19.2194V7.18755C17.25 6.39364 17.8936 5.75 18.6875 5.75H50.3126C51.1065 5.75 51.7501 6.39364 51.7501 7.18755V19.2194C51.7503 22.9507 50.1396 26.5003 47.3313 28.957L42.2339 33.419C41.6369 33.9423 41.5772 34.8505 42.1005 35.4475C42.142 35.4948 42.1866 35.5394 42.2339 35.5809L47.3313 40.0429C50.1396 42.4996 51.7503 46.0492 51.7501 49.7805V61.8124C51.75 62.6064 51.1064 63.2499 50.3125 63.2499Z" fill="#455A64"/>
<path d="M20.125 60.375H48.875V49.7807C48.8715 46.8769 47.6137 44.1161 45.425 42.2079L40.3276 37.746C38.5349 36.1778 38.353 33.4534 39.9211 31.6608C40.0474 31.5164 40.1833 31.3806 40.3276 31.2543L45.425 26.7924C47.6137 24.8842 48.8715 22.1234 48.875 19.2196V8.625H20.125V19.2193C20.1285 22.1231 21.3863 24.8839 23.575 26.7921L28.6724 31.254C30.4642 32.8231 30.6448 35.5477 29.0759 37.3395C28.9504 37.4828 28.8156 37.6175 28.6724 37.743L23.575 42.2079C21.3863 44.1161 20.1285 46.8769 20.125 49.7807V60.375Z" fill="#ECEFF1"/>
<path d="M43.0158 23.8884C42.7936 23.3508 42.2694 23.0001 41.6876 23H27.3127C26.5188 22.9985 25.874 23.6411 25.8726 24.435C25.8719 24.8177 26.0239 25.185 26.2949 25.4553L33.4824 32.6428C34.0437 33.2039 34.9536 33.2039 35.515 32.6428L42.7025 25.4553C43.1143 25.0444 43.2381 24.426 43.0158 23.8884Z" fill="#FFC107"/>
<path d="M50.3124 60.375H18.6875C16.3058 60.375 14.375 62.3058 14.375 64.6875C14.375 67.0692 16.3058 69 18.6875 69H50.3125C52.6943 69 54.625 67.0692 54.625 64.6875C54.625 62.3058 52.6941 60.375 50.3124 60.375Z" fill="#455A64"/>
<path d="M35.466 44.9363C34.8981 44.4222 34.027 44.4437 33.4851 44.9852L20.125 58.3425V60.375H48.875V57.1262L35.466 44.9363Z" fill="#FFC107"/>
</svg>
