<svg width="17" height="17" viewBox="0 0 17 17" fill="none" xmlns="http://www.w3.org/2000/svg">
<path d="M0.720784 0.0510091L16.0758 7.61701C16.1595 7.65827 16.23 7.72215 16.2793 7.80141C16.3286 7.88068 16.3548 7.97216 16.3548 8.06551C16.3548 8.15886 16.3286 8.25034 16.2793 8.3296C16.23 8.40887 16.1595 8.47275 16.0758 8.51401L0.719784 16.08C0.633756 16.1223 0.537394 16.1389 0.442174 16.128C0.346955 16.117 0.256891 16.0789 0.182709 16.0182C0.108526 15.9575 0.0533524 15.8768 0.023758 15.7856C-0.00583645 15.6945 -0.00860405 15.5967 0.0157845 15.504L1.53678 9.75901C1.56144 9.66605 1.61238 9.58217 1.68351 9.51743C1.75463 9.45269 1.84292 9.40984 1.93778 9.39401L8.81878 8.24701C8.85979 8.24022 8.89845 8.22331 8.93128 8.19782C8.9641 8.17233 8.99005 8.13905 9.00678 8.10101L9.02478 8.04101C9.03412 7.9854 9.02438 7.92827 8.99715 7.87889C8.96992 7.82951 8.9268 7.79079 8.87478 7.76901L8.81878 7.75301L1.89978 6.60001C1.8051 6.584 1.71703 6.54107 1.6461 6.47635C1.57516 6.41162 1.52437 6.32784 1.49978 6.23501L0.0157845 0.628009C-0.00885774 0.535249 -0.0062816 0.437356 0.0232055 0.34602C0.0526927 0.254684 0.107845 0.173765 0.182076 0.112925C0.256307 0.052085 0.34648 0.0138953 0.441828 0.00291623C0.537175 -0.00806285 0.633668 0.00863275 0.719784 0.0510091H0.720784Z" fill="#272525"/>
</svg>
