<svg width="18" height="19" viewBox="0 0 18 19" fill="none" xmlns="http://www.w3.org/2000/svg">
<path d="M17.283 7.60604H8.95601V11.057H13.748C13.302 13.25 11.435 14.51 8.95601 14.51C8.26235 14.5112 7.57527 14.3755 6.9342 14.1105C6.29312 13.8456 5.71065 13.4567 5.2202 12.9661C4.72975 12.4756 4.34097 11.8931 4.07615 11.2519C3.81134 10.6108 3.6757 9.9237 3.67701 9.23003C3.67583 8.53645 3.81156 7.84946 4.07644 7.20845C4.34131 6.56743 4.73012 5.98501 5.22055 5.49457C5.71099 5.00414 6.29341 4.61533 6.93443 4.35046C7.57544 4.08559 8.26243 3.94985 8.95601 3.95104C10.215 3.95104 11.353 4.39804 12.246 5.12904L14.846 2.53004C13.262 1.14904 11.231 0.297035 8.95601 0.297035C7.78182 0.293603 6.61854 0.522345 5.53306 0.970105C4.44759 1.41786 3.46135 2.07581 2.63107 2.90609C1.80079 3.73637 1.14284 4.72261 0.695083 5.80808C0.247324 6.89356 0.0185815 8.05684 0.0220137 9.23104C0.0184488 10.4053 0.2471 11.5686 0.694813 12.6541C1.14253 13.7397 1.80046 14.726 2.63077 15.5563C3.46108 16.3866 4.44737 17.0445 5.53291 17.4922C6.61844 17.9399 7.78178 18.1686 8.95601 18.165C13.423 18.165 17.485 14.916 17.485 9.23104C17.485 8.70304 17.404 8.13404 17.283 7.60604Z" fill="#F1BE6B"/>
</svg>
