<svg width="23" height="19" viewBox="0 0 23 19" fill="none" xmlns="http://www.w3.org/2000/svg">
<path d="M22.706 2.43952C21.871 2.80952 20.974 3.05952 20.031 3.17252C21.004 2.59031 21.7319 1.67398 22.079 0.594518C21.1648 1.13751 20.1643 1.51971 19.121 1.72452C18.4194 0.975384 17.4901 0.478845 16.4773 0.311992C15.4646 0.14514 14.4251 0.31731 13.5202 0.801771C12.6154 1.28623 11.8958 2.05588 11.4732 2.99122C11.0505 3.92656 10.9485 4.97527 11.183 5.97452C9.33069 5.88151 7.51863 5.40007 5.86442 4.56142C4.21022 3.72278 2.75084 2.54568 1.581 1.10652C1.181 1.79652 0.951 2.59652 0.951 3.44852C0.950554 4.21551 1.13943 4.97076 1.50088 5.64725C1.86232 6.32374 2.38516 6.90056 3.023 7.32652C2.28328 7.30298 1.55987 7.1031 0.913 6.74352V6.80352C0.912925 7.87926 1.28503 8.9219 1.96618 9.75451C2.64733 10.5871 3.59557 11.1584 4.65 11.3715C3.96378 11.5572 3.24434 11.5846 2.546 11.4515C2.8435 12.3771 3.423 13.1865 4.20337 13.7664C4.98374 14.3463 5.92592 14.6677 6.898 14.6855C5.24783 15.9809 3.20989 16.6836 1.112 16.6805C0.740381 16.6806 0.369076 16.6589 0 16.6155C2.12948 17.9847 4.60834 18.7113 7.14 18.7085C15.71 18.7085 20.395 11.6105 20.395 5.45452C20.395 5.25452 20.39 5.05252 20.381 4.85252C21.2923 4.19349 22.0789 3.37741 22.704 2.44252L22.706 2.43952Z" fill="#F1BE6B"/>
</svg>
